<?xml version="1.0" encoding="UTF-8"?><svg id="_レイヤー_2" xmlns="http://www.w3.org/2000/svg" xmlns:xlink="http://www.w3.org/1999/xlink" viewBox="0 0 83.2 117.14"><defs><style>.cls-1{fill:#fff;}.cls-2{fill:#231815;}.cls-3{fill:url(#radial-gradient);}</style><radialGradient id="radial-gradient" cx="14.15" cy="59.4" fx="14.15" fy="59.4" r="73.12" gradientUnits="userSpaceOnUse"><stop offset="0" stop-color="#aace36"/><stop offset=".5" stop-color="#18943b"/><stop offset="1" stop-color="#128132"/></radialGradient></defs><g id="_レイヤー_1-2"><path class="cls-1" d="m59.9,75.53c0,10.12-8.2,18.32-18.31,18.32s-18.32-8.2-18.32-18.32,8.2-18.32,18.32-18.32,18.31,8.21,18.31,18.32Z"/><path class="cls-3" d="m41.66,33.95c.38-1.39.92-2.84,1.65-4.37l.84-1.71c1.48-2.95,3.15-6.29,3.17-9.6.01-2.23-1.06-3.98-2.01-5.52-.54-.87-1.03-1.69-1.34-2.55,2.27,2.17,6.04,4.98,10.37,4.98,6.98,0,12.65-3.4,12.65-7.59S61.33,0,54.35,0c-5.19,0-9.6,4.06-11.54,6.19-1.95-2.13-6.34-6.19-11.54-6.19-6.98,0-12.66,3.41-12.66,7.59s5.68,7.59,12.66,7.59c4.18,0,7.83-2.62,10.13-4.75.37,1.39,1.1,2.57,1.77,3.66.87,1.43,1.64,2.66,1.62,4.17-.01,2.71-1.55,5.78-2.9,8.48l-.86,1.75c-.91,1.93-1.57,3.77-1.98,5.54C17.29,35.36,0,53.47,0,75.55s18.66,41.59,41.6,41.59,41.6-18.67,41.6-41.59-18.63-41.57-41.54-41.6Zm-.06,59.88c-10.08,0-18.29-8.2-18.29-18.28s8.21-18.29,18.29-18.29,18.28,8.2,18.28,18.29-8.21,18.28-18.28,18.28Zm19.14,4.27c-2.96,0-5.35-2.39-5.35-5.33s2.39-5.34,5.35-5.34,5.33,2.39,5.33,5.34-2.38,5.33-5.33,5.33Z"/><path class="cls-2" d="m36.58,80.43l.12.05c2.09.86,4.56,1.05,6.95,1.24l2.02.17-.07-.25-4.1-14.45-.17.58c-.87,2.77-1.81,5.69-3.12,8.35l-.49.93c-.56,1.02-1.07,1.98-1.15,3.26v.12Z"/><path class="cls-2" d="m34.21,85.84c2.47,2.22,8.51,4.4,11.46,2.71.56-.31.91-.79,1.25-1.27.33-.44.65-.86,1.12-1.16l.52-.32-14.71-.28.36.32Z"/><path class="cls-2" d="m35.4,69.76l.58-.04.37-.66s-.16.07-.19.1l1.12-.98c.12-.1.11-.2.05-.34-.62-1.66-1.86-2.79-3.18-2.88-.81-.06-1.52.32-1.97,1.03-.6.21-1.15.63-1.64,1.27-.04.06-.07.14-.07.21,0,.03.01.07.02.11.71,2.23,2.76,2.68,4.49,2.15.14.07.42.06.42.06Z"/><path class="cls-2" d="m52.45,69.4v-.04c-.02-.68-.55-1.59-1.95-1.87-1.47-.29-2.15.41-2.29,1.09-.02.11-.04.21-.04.32,0,.67.5,1.3,1.21,1.73-.04.04-.12.04-.12.11h0c0,.17.11.29.26.3h.06,0,.07c.2.01,1.05.05,1.05.05l.58-.05h.06c.16-.02.25-.14.25-.29v-.02s-.01,0-.02-.01c.5-.31.87-.75.87-1.32Z"/><path class="cls-1" d="m66.06,92.8c0,2.95-2.38,5.34-5.34,5.34s-5.33-2.39-5.33-5.34,2.39-5.33,5.33-5.33,5.34,2.39,5.34,5.33Z"/></g></svg>