<svg xmlns="http://www.w3.org/2000/svg" width="165.622" height="188.71" viewBox="0 0 165.622 188.71">
  <g id="contents" transform="translate(-0.011 38.707)">
    <path id="パス_28" data-name="パス 28" d="M33.149-.925A31,31,0,0,1,65.373,31.3,35.474,35.474,0,0,1,31.3,65.373,31,31,0,0,1-.925,33.149,35.474,35.474,0,0,1,33.149-.925Z" transform="translate(37.265 8.192) rotate(-45)" fill="#58b5e2"/>
    <path id="パス_14" data-name="パス 14" d="M164.4,445.53A19.819,19.819,0,0,1,147.727,459.1l-25.7,2.738.561,8.374H206.25l.561-8.37L181.078,459.1A19.814,19.814,0,0,1,164.4,445.53Z" transform="translate(-81.583 -320.211)" fill="#58b5e2"/>
    <path id="パス_15" data-name="パス 15" d="M164.57,288.174l-.092-.226s-17.2-42.773-17.753-43.61c-8.931-17.912-27.029-30.168-47.9-30.168H66.848c-20.8,0-38.837,12.168-47.8,29.981-.6.889-17.879,43.8-17.879,43.8l-.092.226a15.273,15.273,0,0,0-.982,7.192A14.559,14.559,0,0,0,15.981,308.6L66,303.108a13.342,13.342,0,0,0,11.626-13.971,13.184,13.184,0,0,0-13.6-12.8l-.475.021-26.793,1.267,6.55-16.4,5.784,2.1-3.007,7.527,10.433-.494c-7.494-10.985-2.593-24.19,6.879-28.573,5.846-2.707,12.882-.522,19.449,4.655,6.567-5.177,13.607-7.361,19.449-4.655,9.471,4.383,14.373,17.591,6.875,28.577l10.4.49-3.007-7.527,5.784-2.1,6.55,16.4L102.1,276.356l-.475-.021a13.186,13.186,0,0,0-13.6,12.8,13.345,13.345,0,0,0,11.626,13.971l50.015,5.494a14.558,14.558,0,0,0,15.888-13.237,15.273,15.273,0,0,0-.982-7.192Z" transform="translate(0 -170.495)" fill="#58b5e2"/>
  </g>
</svg>
