<svg xmlns="http://www.w3.org/2000/svg" width="191.598" height="190" viewBox="0 0 191.598 190">
  <g id="contents" transform="translate(-0.002)">
    <path id="パス_20" data-name="パス 20" d="M.682,383.37l47.743-70.51a3.928,3.928,0,0,1,6.507,0l47.743,70.51a3.929,3.929,0,0,1-3.251,6.132H3.937A3.928,3.928,0,0,1,.685,383.37Z" transform="translate(0 -199.502)" fill="#58b5e2"/>
    <path id="パス_21" data-name="パス 21" d="M384.87,45.783V16.774C366.182,25.19,347.494-.3,328.81,8.108v46.34c18.688-14.189,37.376,5.527,56.06-8.665Z" transform="translate(-210.546 -3.969)" fill="#58b5e2"/>
    <path id="パス_22" data-name="パス 22" d="M311.208,166.317,246.131,73.149a15.663,15.663,0,0,0-9.671-6.322V0H229.3V66.956a15.635,15.635,0,0,0-9.089,6.194l-33.27,47.63L235.416,190h62.836a15.7,15.7,0,0,0,13.83-8.063,14.752,14.752,0,0,0-.866-15.62Zm-52.491-45.523-12.389-17.57-12.389,17.57-12.389-17.57-12.389,17.57-4.923-6.982,24.5-35.067a5.451,5.451,0,0,1,8.87,0l25.263,36.166Z" transform="translate(-122.313)" fill="#58b5e2"/>
  </g>
</svg>
