<svg xmlns="http://www.w3.org/2000/svg" width="150.821" height="190" viewBox="0 0 150.821 190">
  <g id="contents" transform="translate(0.005 0)">
    <path id="パス_16" data-name="パス 16" d="M29.206,306.365a2.891,2.891,0,0,1-1.677-.533,2.827,2.827,0,0,1-1.068-3.145l15.75-50.49a2.826,2.826,0,0,0-1.025-3.111L1.148,219.469a2.818,2.818,0,0,1-1-3.172,2.867,2.867,0,0,1,2.727-1.944H52.944a2.865,2.865,0,0,0,2.721-1.933l17.019-49.877a2.874,2.874,0,0,1,2.721-1.933h0a2.869,2.869,0,0,1,2.721,1.933l16.981,49.872a2.865,2.865,0,0,0,2.721,1.933h50.114a2.873,2.873,0,0,1,2.727,1.944,2.823,2.823,0,0,1-1,3.172l-40.038,29.614a2.83,2.83,0,0,0-1.025,3.111l15.713,50.493a2.819,2.819,0,0,1-1.071,3.143,2.9,2.9,0,0,1-3.354,0L77.082,275.336a2.9,2.9,0,0,0-3.357,0L30.878,305.821a2.9,2.9,0,0,1-1.677.536Z" transform="translate(0 -116.366)" fill="#58b5e2" fill-rule="evenodd"/>
    <path id="パス_17" data-name="パス 17" d="M264.241,26.559,271.56,1.135a.675.675,0,0,0-.636-.862L256.618,0a.677.677,0,0,0-.669.837l6.333,25.686a1.013,1.013,0,0,0,1.956.039Z" transform="translate(-187.829 0)" fill="#58b5e2"/>
    <path id="パス_18" data-name="パス 18" d="M401.336,93.136l21.947-14.771a.673.673,0,0,0,.066-1.069l-10.779-9.4a.674.674,0,0,0-1.05.212L399.862,91.853a1.012,1.012,0,0,0,1.474,1.286Z" transform="translate(-294.396 -49.068)" fill="#58b5e2"/>
    <path id="パス_19" data-name="パス 19" d="M107.681,90.8,96.945,66.617a.675.675,0,0,0-1.041-.251L84.769,75.349a.674.674,0,0,0,.025,1.069l21.363,15.606A1.013,1.013,0,0,0,107.681,90.8Z" transform="translate(-61.238 -47.975)" fill="#58b5e2"/>
  </g>
</svg>
