<?xml version="1.0" encoding="UTF-8"?><svg id="_レイヤー_2" xmlns="http://www.w3.org/2000/svg" xmlns:xlink="http://www.w3.org/1999/xlink" viewBox="0 0 319.53 101.02"><defs><style>.cls-1{fill:#fff;}.cls-2{fill:#e02622;}.cls-3{fill:#231815;}.cls-4{fill:url(#radial-gradient);}</style><radialGradient id="radial-gradient" cx="12.2" cy="51.23" fx="12.2" fy="51.23" r="63.06" gradientUnits="userSpaceOnUse"><stop offset="0" stop-color="#aace36"/><stop offset=".5" stop-color="#18943b"/><stop offset="1" stop-color="#128132"/></radialGradient></defs><g id="_レイヤー_1-2"><path class="cls-3" d="m84.98,3.91h.86v1.49h3.81v7.09c0,.23,0,.87-.85.87h-1.73l-.13-.86h1.58c.13,0,.29,0,.29-.25v-6.05h-2.91c.11.85.5,2.47,2.82,4l-.56.71c-2.02-1.54-2.51-2.86-2.73-3.49-.48,1.16-1.18,2.46-2.81,3.45l-.52-.73c1.41-.75,2.5-1.96,2.82-3.93h-2.92v7.17h-.86v-7.96h3.85v-1.49Z"/><path class="cls-3" d="m95.34,4.25v3.05h-3.1v6.07h-.8V4.25h3.9Zm-.78.64h-2.31v.62h2.31v-.62Zm0,1.15h-2.31v.66h2.31v-.66Zm4.24,5c-1.61-.4-2.34-.71-2.96-1.01-.94.46-1.94.76-2.96.98l-.26-.64c1.29-.24,1.81-.45,2.53-.74-.56-.37-.81-.59-1-.76-.56.36-.76.44-1.07.56l-.42-.56c.86-.33,1.63-.81,2.27-1.56l.66.3c-.11.14-.14.17-.22.26h2.57v.6c-.31.34-.66.72-1.38,1.16,1.07.49,2.16.66,2.58.72l-.35.69Zm-.74,2.01h-4.39v-2.12h4.39v2.12Zm-.75-1.53h-2.9v.93h2.9v-.93Zm-2.59-3.06c.21.18.51.44,1.16.82.6-.35.79-.55,1.04-.82h-2.2Zm5.54-4.22v8.37c0,.32-.15.74-.77.74h-1.08l-.13-.81h.89c.26.01.29-.09.29-.25v-5h-3.08v-3.05h3.88Zm-.81.64h-2.3v.62h2.3v-.62Zm0,1.15h-2.3v.66h2.3v-.66Z"/><path class="cls-3" d="m106.77,3.92v.84h4.16v.79h-8.05v3.35c0,2.85-.52,3.96-.75,4.46l-.69-.65c.34-.77.64-1.76.64-3.73v-4.23h3.84v-.84h.86Zm-1.61,9.45h-.82v-4.32c-.44.59-.65.79-.93,1.04l-.48-.73c1.12-1.03,1.69-2.08,2.25-3.57l.77.25c-.16.42-.36.9-.8,1.73v5.6Zm4.79-6.01h1.05v.8h-1.05v4.31c0,.58-.32.9-.88.9h-1.46l-.19-.84h1.41c.16,0,.29,0,.29-.32v-4.06h-3.26v-.8h3.26v-1.45h.84v1.45Zm-2.59,4.1c-.18-.41-.48-1.09-1.33-2.26l.72-.4c.7.95,1.05,1.59,1.37,2.23l-.76.43Z"/><path class="cls-3" d="m115.72,5.65v.73h-3.74v-.73h3.74Zm-.34-1.42v.73h-3.1v-.73h3.1Zm0,2.85v.73h-3.1v-.73h3.1Zm0,1.51v.71h-3.1v-.71h3.1Zm0,1.47v3.13h-3.08v-3.13h3.08Zm-.72.7h-1.61v1.71h1.61v-1.71Zm.76,1.63c.47-.86.61-1.79.67-2.43l.75.07c-.07.76-.29,1.92-.7,2.77l-.72-.42Zm.2-4.26c.51-.26,1.24-.68,1.75-1.59-.31-.12-.5-.19-1.18-.41l.31-.63c.31.08.54.14,1.17.37.13-.41.16-.68.19-.93h-1.75v-.71h5.04c0,.89,0,2.99-.3,3.76-.14.38-.34.63-.94.63h-.92l-.14-.84h.9c.32.01.41-.18.47-.45.15-.62.17-1.73.17-2.4h-1.71c-.08.5-.14.78-.3,1.22.58.26.82.41,1.11.6l-.36.68c-.36-.22-.59-.37-1.06-.59-.46.84-1.07,1.42-1.92,1.95l-.54-.67Zm2.44,1.81v2.22c0,.17,0,.32.25.32h.66c.32,0,.35-.23.4-1.09l.76.22c-.08.89-.15,1.6-.92,1.6h-1.11c-.55,0-.83-.22-.83-.88v-2.4h.77Zm1.03.25c-.76-.75-1.44-1.13-1.71-1.28l.48-.6c.43.24,1.01.59,1.7,1.28l-.47.6Zm1.67,2.59c-.2-1.12-.48-1.88-.9-2.78l.72-.22c.14.29.71,1.41.97,2.77l-.79.23Z"/><path class="cls-3" d="m126.74,7.58h-2.77v-.8h6.41v.8h-2.79v1.76h3.28v.77h-3.28v2.15c.25.03.55.05.83.05h3.61l-.16.82h-3.64c-2.43,0-3.41-1.43-3.8-1.98-.45.95-.82,1.53-1.53,2.16l-.56-.72c1.07-.94,1.77-2.5,2.07-4.26l.84.12c-.11.77-.24,1.24-.47,1.89.44.77,1.12,1.45,1.98,1.73v-4.5Zm.87-3.68v.89h4.11v2.27h-.85v-1.48h-7.39v1.48h-.84v-2.27h4.08v-.89h.89Z"/><path class="cls-3" d="m134.68,5.88v-1.99h.82v1.99h.91v.76h-.91v2.41c.51-.2.66-.28.88-.38l.07.8c-.25.12-.5.25-.95.42v3.48h-.82v-3.18c-.72.26-1.25.41-1.7.54l-.2-.86c1.01-.24,1.55-.42,1.91-.53v-2.7h-.7c-.08.59-.21,1.33-.46,1.92l-.71-.38c.46-1.12.53-2.78.55-3.71l.76.04c0,.3,0,.69-.06,1.37h.62Zm5.15-1.99v.98h2.16v.79h-2.16v1.39h2.52v.78h-1.08v1.13h.99v.78h-.99v2.48c0,1.05-.23,1.15-1.11,1.15h-1.29l-.16-.87h1.3c.37,0,.43-.1.43-.44v-2.32h-3.75v-.78h3.75v-1.13h-3.92v-.78h2.5v-1.39h-2.13v-.79h2.13v-.98h.83Zm-1.55,8.12c-.51-.74-.99-1.22-1.32-1.54l.69-.49c.52.46,1.07,1.14,1.33,1.52l-.71.51Z"/><path class="cls-3" d="m152.58,4.27v.79h-8.01v7.3h8.25v.79h-9.1V4.27h8.87Zm-1.41,1.47c-.53,1.13-.99,1.84-1.64,2.69,1.16.84,1.7,1.23,2.64,2.12l-.63.73c-1.17-1.2-2.26-1.98-2.56-2.19-1.15,1.27-2.43,2.16-3.32,2.72l-.6-.69c.56-.29,1.94-1.04,3.24-2.49-.77-.53-1.81-1.11-2.85-1.62l.46-.67c.8.4,1.75.88,2.95,1.64.84-1.1,1.22-1.94,1.49-2.57l.84.33Z"/><path class="cls-3" d="m163.25,5.35h-9.45v-.73h4.29v-.74h.89v.74h4.27v.73Zm-.41,7.24c0,.68-.44.76-.63.76h-1.61l-.15-.8,1.26.02c.15,0,.28-.04.28-.31v-2.9h-6.91v3.99h-.85v-4.67h8.61v3.9Zm-.96-4.51h-6.74v-2.17h6.74v2.17Zm-.85-1.56h-5.07v.94h5.07v-.94Zm-.14,5.74h-4.72v-2.26h4.72v2.26Zm-.79-1.63h-3.15v.99h3.15v-.99Z"/><path class="cls-3" d="m168.77,4.6v.73h-1.6c.24.52.29.66.35.83l-.84.3c-.09-.36-.22-.75-.38-1.12h-.48c-.45.62-.86.96-1.12,1.17l-.56-.6c1.07-.76,1.48-1.76,1.6-2.07l.81.15c-.08.21-.12.32-.26.61h2.49Zm.6,1.68v.56h3.7v.73h-3.7v.88h4.32v.73h-1.93v.87h1.86v.73h-1.86v1.55c0,.58,0,1.02-.87,1.02h-1.7l-.14-.85,1.52.02c.26,0,.33-.07.33-.34v-1.41h-6.55v-.73h6.55v-.87h-6.66v-.73h4.29v-.88h-3.67v-.73h3.67v-.56h.47l-.56-.44c.48-.41.97-.93,1.42-2l.79.14c-.08.22-.12.35-.25.61h3.27v.73h-2.13c.14.26.21.42.42.86l-.78.29c-.11-.32-.35-.89-.47-1.15h-.74c-.38.54-.6.75-.79.95h.2Zm-2.06,6.68c-.73-.98-1.14-1.33-1.45-1.59l.58-.53c.55.42,1.13,1.01,1.53,1.56l-.66.56Z"/><path class="cls-3" d="m182.47,7.91c-.82.72-1.74,1.24-2.59,1.66v.21h4.24v.79h-4.24v2.01c0,.67-.53.79-.84.79h-1.86l-.16-.88h1.66c.32.01.34-.07.34-.31v-1.61h-4.34v-.79h4.34v-.85h.44c.23-.09,1.05-.43,1.65-.97h-4.79v-.75h6.15v.69Zm-.99-2.37c.32-.55.68-1.47.76-1.68l.89.3c-.2.48-.46.96-.72,1.39h1.48v2.25h-.84v-1.5h-7.29v1.5h-.84v-2.25h1.48c-.2-.59-.54-1.1-.7-1.35l.75-.29c.41.54.64,1.06.79,1.45l-.51.19h4.75Zm-2.23,0c-.18-.45-.47-.99-.78-1.45l.79-.32c.42.61.7,1.3.77,1.49l-.78.28Z"/><path class="cls-3" d="m188.36,10.01c-.53-.76-.73-1.09-.99-1.65v5h-.79v-4.98c-.49,1.57-.96,2.24-1.24,2.64l-.32-1.04c.31-.42,1.01-1.41,1.49-3.31h-1.37v-.76h1.44v-2h.79v2h1.17v.76h-1.17v.5c.51,1.13,1.13,1.77,1.42,2.07l-.43.77Zm-.22,2.59c1.44-.45,2.2-.96,2.77-1.44-.84-.98-1.2-2.02-1.41-2.67l.75-.23c.39,1.2.84,1.85,1.22,2.31.38-.43.81-1.04,1.26-2.32l.77.26c-.5,1.38-1.03,2.12-1.47,2.64.63.57,1.43,1.01,2.73,1.41l-.42.82c-1.14-.38-2.06-.86-2.89-1.63-.71.66-1.6,1.15-2.91,1.64l-.43-.79Zm.28-4.78c.31-.19,1.07-.66,1.76-1.69l.69.38c-.56,1-1.5,1.67-1.89,1.92l-.57-.6Zm3.54-3.91v1.12h2.62v.76h-5.99v-.76h2.53v-1.12h.85Zm2.24,4.5c-1.11-.72-1.81-1.68-2-1.93l.67-.4c.7.84,1.22,1.25,1.87,1.66l-.54.66Z"/><path class="cls-3" d="m200.71,13.19V4.08h2.3c-.14.2-1.31,1.98-1.31,4.56s1.17,4.36,1.31,4.56h-2.3Z"/><path class="cls-3" d="m210.97,8.1h-2.31v1.39h2.93v.69h-2.93v1.73h3.81v.73h-8.4v-.73h3.82v-1.73h-2.92v-.69h2.92v-1.39h-2.28v-.7c-.62.38-1.01.55-1.34.71l-.39-.75c1.46-.56,2.96-1.55,3.98-2.97h.83c.93,1.25,2.28,2.35,3.97,2.96l-.38.75c-.32-.15-.73-.33-1.3-.69v.69Zm-.03-.71c-.57-.37-1.7-1.14-2.68-2.36-.74.94-1.64,1.74-2.66,2.36h5.34Z"/><path class="cls-3" d="m221.53,4.79v7.9h-7.76v-7.9h7.76Zm-.75.69h-6.25v6.52h6.25v-6.52Zm-.5,1.31h-2.35v1.47h2.16v.61h-2.16v1.77h2.48v.65h-5.5v-.65h2.31v-1.77h-1.97v-.61h1.97v-1.47h-2.13v-.63h5.19v.63Zm-1.12,3.71c-.04-.08-.38-.74-.75-1.22l.63-.29c.09.12.53.68.76,1.19l-.64.32Z"/><path class="cls-3" d="m226.8,5.33v-.96h.76v.96h3.75v.72h-6.99v2.86c0,1.23-.25,2.76-1.05,3.94l-.59-.57c.63-.98.87-2.06.87-3.18v-3.78h3.24Zm2.46,3.42c.73,1.08,1.49,2.66,1.9,3.85l-.76.33c-.11-.33-.19-.58-.33-.91-1.51.25-4.55.47-5.76.53l-.12-.78c.55,0,.78-.02.96-.03.39-.94,1-2.59,1.61-5.28l.8.2c-.44,1.67-.97,3.49-1.64,5.04,1.53-.09,2.51-.15,3.89-.31-.33-.71-.61-1.31-1.23-2.32l.68-.33Z"/><path class="cls-3" d="m234.86,10.69c-.61.36-1.75.86-2.57,1.13l-.11-.82c.27-.07.6-.16,1.13-.36v-3.18h-1.08v-.72h1.08v-2.35h.71v2.35h.79v.72h-.79v2.91c.47-.18.62-.27.84-.38v.71Zm-.48.51c1.21-.16,2.39-.45,3.24-.68l.03.68c-.95.38-2.86.73-3.12.78l-.15-.78Zm6.34-5.4v.7h-2.05c.04,1.57.05,1.94.18,3.11.53-1.01.73-1.93.84-2.46l.68.2c-.32,1.56-.83,2.53-1.34,3.32.15.74.49,1.39.64,1.39.21,0,.47-1.04.54-1.34l.63.36c-.23.88-.51,1.84-1.15,1.84-.48,0-.85-.48-1.2-1.53-.69.86-1.36,1.33-1.71,1.58l-.61-.56c.45-.29,1.28-.83,2.1-1.91-.25-1.2-.33-2.78-.36-4.01h-3.15v-.7h3.13c0-.59,0-.99,0-1.4h.72c0,.23.03,1.27.03,1.4h2.07Zm-3.22,4.1h-2.47v-2.75h2.47v2.75Zm-.66-2.14h-1.16v1.51h1.16v-1.51Zm3.14-1.97c-.38-.46-.64-.68-.98-.93l.49-.5c.37.25.71.54,1,.9l-.5.52Z"/><path class="cls-3" d="m243.45,7.96v2.57c.06.29.15.76.69,1.09.51.32,1.28.37,1.42.37h4.67l-.15.72h-4.38c-.75,0-1.83-.16-2.46-1.14-.36.49-.89,1.01-1.31,1.36l-.41-.79c.37-.23.67-.46,1.19-1.02v-2.42h-1.08v-.73h1.83Zm-.24-1.46c-.37-.5-.89-1.07-1.46-1.54l.54-.49c.48.37.96.8,1.5,1.52l-.59.5Zm6.61-.03v4.38c0,.29-.06.71-.72.71h-1l-.13-.71h.89c.16,0,.26-.02.26-.27v-.73h-1.7v1.59h-.69v-1.59h-1.7v1.71h-.69v-5.09h2.01c-.33-.24-.62-.43-.99-.61l.4-.5c.35.18.74.4,1.23.76.86-.38,1.19-.62,1.46-.82h-4.21v-.61h5.36v.61c-.49.38-.91.65-2.07,1.16h2.28Zm-3.08.6h-1.7v.81h1.7v-.81Zm0,1.38h-1.7v.82h1.7v-.82Zm2.38-1.38h-1.7v.81h1.7v-.81Zm0,1.38h-1.7v.82h1.7v-.82Z"/><path class="cls-3" d="m252.64,12.9h-.74v-4.7c-.3.49-.43.64-.62.84l-.41-.82c.82-.93,1.37-2.59,1.58-3.85l.77.12c-.19,1.03-.39,1.6-.58,2.13v6.28Zm6.91-6.34h-6.4v-.69h6.4v.69Zm-.4,6.16h-5.48v-2.91h5.48v2.91Zm-.14-4.89h-5.19v-.67h5.19v.67Zm0,1.31h-5.19v-.66h5.19v.66Zm-.08-3.89h-5.05v-.67h5.05v.67Zm-.53,5.21h-3.97v1.6h3.97v-1.6Z"/><path class="cls-3" d="m262.7,5.41v-1.04h.7v1.04h2v.69h-2v1.05h2.18v.7h-2.18v.91h1.89v2.91c0,.39-.12.59-.56.59h-.82l-.13-.73h.6c.19,0,.21-.11.21-.26v-1.82h-1.19v3.46h-.7v-3.46h-1.17v2.87h-.71v-3.56h1.88v-.91h-2.26v-.7h2.26v-1.05h-1.15c-.17.47-.29.66-.43.88l-.65-.37c.26-.39.62-1,.76-2.11l.72.09c-.06.32-.09.52-.17.82h.92Zm4.05-.51v5.91h-.75v-5.91h.75Zm1.86-.52v7.85c0,.64-.52.68-.78.68h-1.26l-.14-.8,1.16.02c.22,0,.24-.11.24-.24v-7.51h.77Z"/><path class="cls-3" d="m272.22,4.08v9.12h-2.3c.14-.2,1.31-1.98,1.31-4.56s-1.17-4.36-1.31-4.56h2.3Z"/><path class="cls-3" d="m82.8,56.59c1.41,2.91,2.87,5.64,4.45,8.53.62-1.21,3.08-5.67,4.6-8.53h.2c.46,3.96.77,7.34,1.27,10.89-.25-.05-.48-.08-.73-.08s-.48.03-.73.08c-.22-2.77-.43-5.34-.76-7.99h-.03c-1.41,2.59-2.83,5.13-4.06,7.91h-.14c-1.21-2.57-2.63-5.23-3.98-7.91h-.03c-.29,2.56-.73,6.24-.74,7.99-.19-.05-.36-.08-.54-.08s-.36.03-.54.08c.54-3.42,1.16-7.6,1.5-10.89h.26Z"/><path class="cls-3" d="m98.14,59.92c2.17,0,3.21,1.44,3.21,3.16,0,.2-.02.4-.03.6-1.12-.02-2.21-.05-3.31-.05-.68,0-1.35.03-2.03.05-.02.15-.02.29-.02.43,0,1.61.96,2.87,2.68,2.87.82,0,1.78-.48,2.32-1.1l.08.05-.09.76c-.62.5-1.63.95-2.59.95-2.23,0-3.76-1.58-3.76-3.64,0-2.51,1.27-4.07,3.55-4.07Zm-2.14,3.17c.64.02,1.36.05,2.01.05s1.41-.03,2.06-.05c0-1.1-.29-2.68-1.9-2.68-1.52,0-2.09,1.56-2.17,2.68Z"/><path class="cls-3" d="m103.57,56.59c.43,0,.79.36.79.79s-.36.79-.79.79-.79-.36-.79-.79.36-.79.79-.79Zm-.57,6.38c0-.93-.03-2.01-.12-2.9.23.05.46.08.7.08s.46-.03.7-.08c-.09.88-.12,1.97-.12,2.9v1.61c0,.93.03,2.01.12,2.9-.23-.05-.46-.08-.7-.08s-.46.03-.7.08c.09-.88.12-1.97.12-2.9v-1.61Z"/><path class="cls-3" d="m106.47,60.22c0-1.42-.03-3.42-.12-4.46.23.05.46.08.7.08s.46-.03.7-.08c-.09,1.04-.12,3.04-.12,4.38v1.18h.03c.57-.88,1.36-1.39,2.48-1.39s2.48.56,2.48,2.69c0,.88-.06,1.81-.06,2.87,0,.68,0,1.33.03,2-.23-.05-.43-.08-.65-.08s-.42.03-.64.08c.03-1.13.11-2.26.11-3.45v-.95c0-1.52-.67-2.35-1.69-2.35-1.44,0-2.09.93-2.09,2.54,0,1.18.03,3.17.12,4.21-.23-.05-.46-.08-.7-.08s-.46.03-.7.08c.09-1.04.12-3.04.12-4.46v-2.8Z"/><path class="cls-3" d="m117.87,59.92c1.8,0,3.76,1.04,3.76,3.86s-1.97,3.86-3.76,3.86-3.76-1.04-3.76-3.86,1.97-3.86,3.76-3.86Zm0,7.22c1.83,0,2.4-1.63,2.4-3.36s-.57-3.36-2.4-3.36-2.4,1.63-2.4,3.36.57,3.36,2.4,3.36Z"/><path class="cls-3" d="m123.24,60.22c0-1.42-.03-3.42-.12-4.46.23.05.46.08.7.08s.46-.03.7-.08c-.09,1.04-.12,3.04-.12,4.46v2.82c0,.19.06.29.19.29.16,0,.36-.17.6-.36.37-.28,1.89-1.8,2.85-2.9.17.05.37.08.59.08s.42-.03.77-.08c-1.29,1.04-2.49,2.08-3.56,3.11,1.18,1.42,2.46,2.87,3.73,4.29-.36-.05-.62-.08-.88-.08s-.53.03-.79.08c-.9-1.18-2.38-2.91-3.11-3.69-.06-.08-.15-.16-.23-.16-.09,0-.15.06-.15.19v.93c0,.91.03,1.81.12,2.73-.23-.05-.46-.08-.7-.08s-.46.03-.7.08c.09-1.04.12-3.04.12-4.46v-2.8Z"/><path class="cls-3" d="m130.83,60.82c.93-.7,1.67-.9,2.49-.9,1.49,0,2.51.91,2.51,2.29,0,1.16-.06,2.31-.06,3.61,0,.51,0,1.15.6,1.15.09,0,.22,0,.33-.06v.34c-.22.09-.59.22-.99.22-.67,0-1.01-.43-1.07-.96-.74.74-1.38,1.13-2.43,1.13s-2.06-.73-2.06-1.91c0-1.24.84-1.91,2.18-2.12,2.25-.36,2.32-.48,2.32-1.08,0-1.04-.46-1.95-1.7-1.95-.82,0-1.6.39-1.95,1.05h-.17v-.8Zm3.83,2.76c-1.07.36-3.24.25-3.24,1.94,0,.98.67,1.47,1.35,1.47.79,0,1.47-.51,1.83-1.08l.06-2.32Z"/><path class="cls-3" d="m141.44,60.73c-1.44,0-2.09.93-2.09,2.54v1.32c0,.93.03,2.01.12,2.9-.23-.05-.46-.08-.7-.08s-.46.03-.7.08c.09-.88.12-1.97.12-2.9v-1.61c0-.93-.03-2.01-.12-2.9.23.05.46.08.7.08.16,0,.39-.03.62-.08-.03.42-.05.82-.05,1.24h.03c.57-.88,1.36-1.39,2.48-1.39s2.48.56,2.48,2.69c0,.88-.06,1.81-.06,2.87,0,.68,0,1.33.03,2-.23-.05-.43-.08-.65-.08s-.42.03-.64.08c.03-1.13.11-2.26.11-3.45v-.95c0-1.52-.67-2.35-1.69-2.35Z"/><path class="cls-3" d="m159.09,60.81c0-1.33-.06-2.68-.12-4.01.26.05.51.08.76.08s.5-.03.76-.08c-.06,1.33-.12,2.68-.12,4.01v2.66c0,1.33.06,2.68.12,4.01-.26-.05-.51-.08-.76-.08s-.5.03-.76.08c.06-1.33.12-2.68.12-4.01v-1.39c-1.08-.01-2.15-.03-3.24-.03s-2.15.02-3.24.03v1.39c0,1.33.06,2.68.12,4.01-.26-.05-.51-.08-.76-.08s-.5.03-.76.08c.06-1.33.12-2.68.12-4.01v-2.66c0-1.33-.06-2.68-.12-4.01.26.05.51.08.76.08s.5-.03.76-.08c-.06,1.33-.12,2.68-.12,4.01v.54c1.08.02,2.15.05,3.24.05s2.15-.03,3.24-.05v-.54Z"/><path class="cls-3" d="m163.55,56.59c.43,0,.79.36.79.79s-.36.79-.79.79-.79-.36-.79-.79.36-.79.79-.79Zm-.57,6.38c0-.93-.03-2.01-.12-2.9.23.05.46.08.7.08s.46-.03.7-.08c-.09.88-.12,1.97-.12,2.9v1.61c0,.93.03,2.01.12,2.9-.23-.05-.46-.08-.7-.08s-.46.03-.7.08c.09-.88.12-1.97.12-2.9v-1.61Z"/><path class="cls-3" d="m168.94,59.92c.39,0,.7.03,1.25.06.46.03.87.06,1.08.06.6,0,1.05-.03,1.25-.08-.01.11-.03.22-.03.33s.02.22.03.33c-.59-.05-1.16-.11-1.72-.12l-.03.03c.64.34,1.07,1.18,1.07,1.95,0,1.55-1.13,2.48-2.88,2.48-.28,0-.56-.03-.85-.03-.37,0-.76.31-.76.71,0,.54.22.77.91.79.57.02,1.13.03,1.7.05,1.89.05,2.65.88,2.65,1.98,0,1.42-1.07,3.14-3.67,3.14-1.98,0-3.24-.85-3.24-2.23,0-1.12.84-1.8,1.66-2.04v-.03c-.63-.19-.98-.63-.98-1.24,0-.68.59-1.19,1.1-1.29v-.03c-.94-.42-1.52-1.16-1.52-2.29,0-1.72,1.35-2.52,2.96-2.52Zm.2,7.48c-1.52,0-2.43.48-2.43,1.8,0,1.41.99,1.95,2.28,1.95s2.49-.63,2.49-2.03c0-1.21-.7-1.72-2.34-1.72Zm-.19-7.03c-1.12,0-1.77.82-1.77,2.08s.56,2.11,1.75,2.11,1.7-1.04,1.7-2.18c0-1.27-.68-2-1.69-2Z"/><path class="cls-3" d="m173.95,60.22c0-1.42-.03-3.42-.12-4.46.23.05.46.08.7.08s.46-.03.7-.08c-.09,1.04-.12,3.04-.12,4.38v1.18h.03c.57-.88,1.36-1.39,2.48-1.39s2.48.56,2.48,2.69c0,.88-.06,1.81-.06,2.87,0,.68,0,1.33.03,2-.23-.05-.43-.08-.65-.08s-.42.03-.64.08c.03-1.13.11-2.26.11-3.45v-.95c0-1.52-.67-2.35-1.69-2.35-1.44,0-2.09.93-2.09,2.54,0,1.18.03,3.17.12,4.21-.23-.05-.46-.08-.7-.08s-.46.03-.7.08c.09-1.04.12-3.04.12-4.46v-2.8Z"/><path class="cls-3" d="m186.75,65.42c.34.73,1.12,1.61,2.45,1.61s2.21-1.01,2.21-2.25c0-2.85-4.88-1.63-4.88-5.27,0-1.72,1.3-2.93,3.36-2.93.98,0,1.67.23,2.29.73-.19.36-.29.71-.42,1.3h-.19c-.22-.57-.68-1.46-1.84-1.46s-2,.79-2,1.92c0,2.9,4.88,1.69,4.88,5.11,0,1.89-1.41,3.48-3.8,3.48-1.29,0-2.01-.45-2.55-.88.19-.48.23-.79.29-1.38h.19Z"/><path class="cls-3" d="m197.82,59.92c1.13,0,2.11.33,2.49.68-.14.31-.26.65-.34,1.02h-.12c-.29-.53-1.01-1.21-1.98-1.21-1.87,0-2.63,1.44-2.63,3.35,0,2.12.96,3.22,2.68,3.22.82,0,1.78-.48,2.32-1.1l.08.05c-.05.25-.08.51-.09.76-.62.5-1.63.95-2.59.95-1.8,0-3.76-1.08-3.76-3.86s1.97-3.86,3.95-3.86Z"/><path class="cls-3" d="m201.84,60.22c0-1.42-.03-3.42-.12-4.46.23.05.46.08.7.08s.46-.03.7-.08c-.09,1.04-.12,3.04-.12,4.38v1.18h.03c.57-.88,1.36-1.39,2.48-1.39s2.48.56,2.48,2.69c0,.88-.06,1.81-.06,2.87,0,.68,0,1.33.03,2-.23-.05-.43-.08-.65-.08s-.42.03-.64.08c.03-1.13.11-2.26.11-3.45v-.95c0-1.52-.67-2.35-1.69-2.35-1.44,0-2.09.93-2.09,2.54,0,1.18.03,3.17.12,4.21-.23-.05-.46-.08-.7-.08s-.46.03-.7.08c.09-1.04.12-3.04.12-4.46v-2.8Z"/><path class="cls-3" d="m213.23,59.92c1.8,0,3.76,1.04,3.76,3.86s-1.97,3.86-3.76,3.86-3.76-1.04-3.76-3.86,1.97-3.86,3.76-3.86Zm0,7.22c1.83,0,2.4-1.63,2.4-3.36s-.57-3.36-2.4-3.36-2.4,1.63-2.4,3.36.57,3.36,2.4,3.36Z"/><path class="cls-3" d="m221.83,59.92c1.8,0,3.76,1.04,3.76,3.86s-1.97,3.86-3.76,3.86-3.76-1.04-3.76-3.86,1.97-3.86,3.76-3.86Zm0,7.22c1.83,0,2.4-1.63,2.4-3.36s-.57-3.36-2.4-3.36-2.4,1.63-2.4,3.36.57,3.36,2.4,3.36Z"/><path class="cls-3" d="m227.34,60.22c0-1.42-.03-3.42-.12-4.46.23.05.46.08.7.08s.46-.03.7-.08c-.09,1.04-.12,3.04-.12,4.46v2.8c0,1.42.03,3.42.12,4.46-.23-.05-.46-.08-.7-.08s-.46.03-.7.08c.09-1.04.12-3.04.12-4.46v-2.8Z"/><path class="cls-3" d="m93.12,41.13c0,2.44-1.15,3.06-3.29,3.06h-5.73c-2.54,0-3.29-.98-3.29-3.06v-18.55c0-2.33,1.02-3.09,3.29-3.09h5.73c2.44,0,3.29.91,3.29,3.09v18.55Zm-3.49-9.95v-8.38c0-1.35-.27-1.64-1.53-1.64h-2.27c-1.29,0-1.53.29-1.53,1.64v8.38h5.32Zm-5.32,1.21v8.49c0,1.38.27,1.67,1.53,1.67h2.27c1.22,0,1.53-.25,1.53-1.67v-8.49h-5.32Zm21.77,4.69h-6.46c0,6.48-3.91,10.06-8.23,13.25-.47.34-2.99,2.29-3.38,1.02-.15-.48.54-1.14.93-1.41,4.78-3.35,7.02-5.44,7.02-13.41v-13.69c0-2.47,1.08-3.42,3.59-3.42h6.55c2.24,0,3.59.65,3.59,3.42v25.42c0,2.55-1.32,3.35-3.59,3.35h-4.17c-.27,0-1.02,0-1.02-.84s.75-.84,1.02-.84h2.41c1.42,0,1.73-.43,1.73-1.89v-10.96Zm0-8.11h-6.48v3.25c0,2.73.02,3.65.02,3.65h6.46v-6.9Zm-6.48-1.21h6.48v-5c0-1.27-.24-1.71-1.56-1.71h-3.36c-1.32,0-1.56.4-1.56,1.71v5Z"/><path class="cls-3" d="m118.18,39.81c0-1.23-.2-1.64-1.42-1.64h-3.18c-.3,0-.95.12-.95-.61s.65-.83.95-.83h5.07c2.31,0,3.09.83,3.09,2.76v4.8c.34,3.35,1.97,4.99,6.51,4.99h17.25c.3,0,.95,0,.95.72,0,.76-.64.72-.95.72h-17.69c-4.71,0-6.58-.47-8.04-3.23-1.15,1.38-3.53,3.97-4.61,3.97-.95,0-1.46-.95-1.46-1.96,0-.84.27-1.31,1.12-1.71,1.73-.8,2.31-1.09,3.36-1.78v-6.19Zm19.3-16.55c0,.91-.24,2.33-1.83,2.33-1.49,0-1.83-1.05-1.83-2.22v-1.03h-8.41v.92c0,.51,0,2.33-1.8,2.33s-1.8-1.67-1.8-2.33v-.92h-8.13c-.3,0-.95.12-.95-.6,0-.76.68-.6.95-.6h8.13c0-1.05,0-2.96,1.76-2.96s1.83,1.87,1.83,2.96h8.41c0-1.02,0-2.96,1.8-2.96s1.87,1.91,1.87,2.96h7.92c.3,0,.95-.12.95.6s-.64.6-.95.6h-7.92v.92Zm-19.3,5.57c-1.26-2.5-2.07-3.24-2.97-4.18-.1-.09-.23-.27-.23-.44,0-.36.35-.62.71-.62.55,0,5.78,3.09,5.78,4.74,0,.94-.94,1.56-1.84,1.56s-1.23-.59-1.45-1.06Zm0,5.4c-1.26-2.5-2.07-3.24-2.97-4.18-.1-.09-.23-.26-.23-.44,0-.35.35-.62.71-.62.55,0,5.78,3.09,5.78,4.74,0,.94-.94,1.56-1.84,1.56s-1.23-.59-1.45-1.06Zm22.05-7.32c1.32,0,1.93.53,1.93,1.37,0,.69-.44,1.13-.98,1.56-1.46,1.2-2.95,1.85-4.71,2.73,2.61,1.34,3.44,1.75,6.69,2.51.58.14,1.31.29,1.86.53.25.11.43.16.5.43.1.37-.31.71-.7.71-.37,0-2.34-.4-4-.8-3.66-.91-5.56-1.78-6.41-2.18-5.56,2.29-10.21,2.86-10.41,2.86-.44,0-.78-.17-.78-.61,0-.66.58-.72.95-.79,3.77-.91,6.48-2.15,7.83-2.85-.99-.69-2.03-1.46-3.26-2.95-1.53,1.09-3.46,2.36-3.93,2.36-.37,0-.75-.36-.75-.83,0-.4.24-.69.51-.87,2.58-1.96,3.63-3.56,4.85-5.56.27-.47.64-.91,1.46-.91.95,0,1.97.62,1.97,1.6,0,.58-.37,1.21-.85,1.69h8.24Zm-4.27,13.56h5.33c.34,0,.92,0,.92.72s-.61.68-.92.68h-5.33v1.98h7.33c.37,0,.95.03.95.72,0,.73-.61.72-.95.72h-7.33v.95c0,.51,0,2.41-1.76,2.41-1.52,0-1.76-1.39-1.76-2.41v-.95h-7.16c-.34,0-.95,0-.95-.72s.64-.72.95-.72h7.16v-1.98h-5.12c-.34,0-.95.04-.95-.68,0-.76.64-.72.95-.72h5.12v-1.8h-5.83c-.34,0-.95.04-.95-.72s.64-.68.95-.68h5.83c0-.62.03-2.44,1.76-2.44s1.76,1.82,1.76,2.44h6c.34,0,.95-.04.95.68,0,.76-.64.72-.95.72h-6v1.8Zm-4.82-12.43c.85,1.09,1.73,2.16,2.82,3,.85-.51,3.16-1.98,3.16-2.49,0-.25-.17-.51-.51-.51h-5.46Z"/><path class="cls-3" d="m161.77,25.46c-.64,0-3.02-1.89-4.34-3.6-.13-.18-.3-.33-.54-.33-.2,0-.34.15-.51.37-1.8,2.36-6.48,6.4-7.49,6.4-.54,0-.75-.51-.75-.84,0-.4.27-.58.54-.84,3.12-2.69,4.47-5.24,5.36-6.91.58-1.13,1.05-1.64,2.61-1.64,1.87,0,2.17.47,2.95,2.22.61,1.38,1.46,2.33,2.68,3.75.1.11.27.33.27.66,0,.4-.3.76-.78.76Zm-11.46,5.89c0-2.11.95-2.64,3.09-2.64h1.25v-2.27c0-1.35.81-1.82,1.56-1.82s1.63.47,1.63,1.78v2.3h.98c2.31,0,3.09.71,3.09,2.64v6.15c0,2.11-.98,2.91-3.09,2.91h-5.29v6.8c1.83-.51,3.29-.98,5.12-1.67-.24-.8-1.36-3.45-1.36-3.67,0-.4.34-.8.78-.8.31,0,.71.4,1.7,1.64,1.09,1.35,3.46,4.62,3.46,5.86,0,1.06-.95,1.96-2,1.96-.58,0-1.02-.33-1.25-.87-.17-.37-.68-2.15-.78-2.51-5.09,2.54-9.02,3.93-9.5,3.93-.58,0-1.22-.58-1.22-1.45,0-1.06.64-1.24,1.83-1.53v-16.73Zm8.41,2.34v-2.29c0-1.2-.2-1.49-1.42-1.49h-2.37c-1.19,0-1.39.29-1.39,1.49v2.29h5.19Zm-5.19,1.21v4.3h3.77c1.22,0,1.42-.33,1.42-1.53v-2.77h-5.19Zm15.94-12.52v-2.2c0-1.96,1.42-2.11,1.87-2.11.2,0,1.83,0,1.83,2.11v2.2h3.26c2.27,0,3.09.68,3.09,2.64v2.66c0,.95-.27,2.07-1.63,2.07-1.25,0-1.56-1.05-1.56-2.04v-2.73c0-1.24-.24-1.53-1.39-1.53h-7.39c-1.19,0-1.43.29-1.43,1.53v2.69c0,.37-.03.69-.14,1.05.41-.4.95-.73,2.41-.73h5.06c2.13,0,3.08.76,3.08,2.87v3.29c0,1.85-.71,2.87-3.08,2.87h-4.71v2.83h6.88c2.14,0,3.05.8,3.05,2.88v5.37c0,1.75-.54,2.88-3.05,2.88h-7.23c-2.1,0-3.09-.76-3.09-2.88v-17.24c0-.73.13-1.2.2-1.46-.2.15-.47.33-.98.33-1.39,0-1.59-1.2-1.59-2.07v-2.66c0-1.82.68-2.64,3.09-2.64h3.46Zm-.75,13.46h3.05c1.15,0,1.39-.29,1.39-1.53v-3.61c0-1.2-.21-1.53-1.39-1.53h-1.63c-1.22,0-1.42.33-1.42,1.53v5.14Zm0,5.25v7.21c0,1.24.24,1.53,1.42,1.53h3.66c1.19,0,1.42-.29,1.42-1.53v-5.68c0-1.27-.24-1.53-1.42-1.53h-5.09Z"/><path class="cls-3" d="m196.46,22.08v-1.57c0-1.24.37-2.4,1.93-2.4s1.87,1.31,1.87,2.4v1.57h13.05c.31,0,.95,0,.95.72s-.61.72-.95.72h-30.07c-.31,0-.95.04-.95-.72,0-.69.61-.72.95-.72h13.22Zm12.34,12.46c2.51,0,3.6.95,3.6,3.46v10.12c0,2.69-1.49,3.35-3.6,3.35h-3.36c-.27,0-1.05.12-1.05-.72s.75-.72,1.05-.72h1.66c1.36,0,1.59-.4,1.59-1.71v-10.66c0-1.27-.24-1.71-1.59-1.71h-17.57c-1.36,0-1.59.44-1.59,1.71v11.51c0,.73,0,2.55-1.8,2.55s-1.87-1.82-1.87-2.55v-11.17c0-2.8,1.36-3.46,3.56-3.46h20.96Zm-2.12-4.61c0,2.18-1.25,2.66-2.88,2.66h-10.81c-1.76,0-2.92-.54-2.92-2.66v-1.53c0-2.22,1.36-2.62,2.92-2.62h10.81c1.73,0,2.88.51,2.88,2.62v1.53Zm-1.64,13.06c0,2.11-.92,2.87-3.09,2.87h-7.29c-2.41,0-3.09-1.02-3.09-2.87v-2.11c0-1.96.81-2.91,3.09-2.91h7.29c2.51,0,3.09,1.16,3.09,2.91v2.11Zm-1.96-15.01c0-.73-.13-.98-1.29-.98h-6.81c-1.12,0-1.29.26-1.29.98v2.38c0,.76.13,1.02,1.29,1.02h6.81c1.12,0,1.29-.29,1.29-1.02v-2.38Zm-1.57,12.58c0-1.13-.2-1.38-1.29-1.38h-3.83c-1.12,0-1.29.29-1.29,1.38v2.71c0,1.13.21,1.38,1.29,1.38h3.83c1.09,0,1.29-.25,1.29-1.38v-2.71Z"/><path class="cls-3" d="m223.24,23.25c-2.44,2.88-4.98,4.73-5.56,4.73-.41,0-.75-.4-.75-.8,0-.25.1-.4,1.05-1.56,2.03-2.55,2.78-4.44,3.42-6.07.27-.73.58-1.49,1.7-1.49,1.05,0,2.17.84,2.17,1.78,0,.62-.31,1.24-.71,1.86h6.48c.34,0,.95,0,.95.72s-.61.72-.95.72h-5.17c1.56,1.53,2.7,2.52,2.7,3.39,0,1.09-1.12,1.75-2,1.75-1.19,0-1.46-.87-1.63-1.45-.37-1.27-.65-2.25-1.26-3.57h-.44Zm11.12,11.65h14.2c.34,0,.95-.04.95.68s-.65.72-.95.72h-31.85c-.31,0-.95.04-.95-.68s.64-.72.95-.72h14.06v-4.01h-9.73c-.3,0-.95.04-.95-.72s.65-.72.95-.72h9.7c.03-.69.03-2.55,1.8-2.55s1.83,1.86,1.83,2.55h9.7c.31,0,.95,0,.95.72,0,.8-.71.72-.95.72h-9.7v4.01Zm4.38,1.77c1.83,0,1.86.55,1.86,1.24v1.39h6.68c.34,0,.95-.04.95.68,0,.77-.64.72-.95.72h-6.68v7.75c0,2.33-1.29,2.95-3.29,2.95h-4.81c-.24,0-1.02,0-1.02-.84s.74-.84,1.02-.84h2.68c1.43,0,1.76-.4,1.76-1.86v-7.17h-18.96c-.31,0-.95.04-.95-.68s.64-.72.95-.72h18.96s0-2.63,1.8-2.63Zm-11.8,12.77c-.98,0-1.32-.66-1.8-1.64-.85-1.71-1.26-2.37-2.34-3.82-.13-.22-.24-.36-.24-.62,0-.44.37-.83.78-.83.3,0,1.25.62,1.66.87,2.14,1.35,4,2.55,4,3.89,0,1.13-1.05,2.15-2.07,2.15Zm9.87-26.31c-.95,1.02-3.43,3.54-4.17,3.54-.41,0-.78-.4-.78-.84,0-.22.2-.55.88-1.53,1.12-1.6,1.53-2.69,2.27-4.91.3-.95.78-1.35,1.69-1.35.85,0,2.14.65,2.14,1.78,0,.54-.17,1.1-.75,1.86h9.12c.34,0,.95,0,.95.72s-.61.72-.95.72h-6.46c1.56,1.27,3,2.37,3,3.39,0,1.09-1.09,1.75-2,1.75-1.19,0-1.46-.69-1.63-1.2-.81-2.14-1.15-3.13-1.56-3.93h-1.76Z"/><path class="cls-3" d="m265.93,38.42c0-.91,0-2.44,1.9-2.44.64,0,.95.25,1.22.4.64-.62,2.68-2.54,2.68-3.06,0-.33-.27-.62-.61-.62h-12.14c-.31,0-.95.04-.95-.72s.61-.72.95-.72h15.87c1.36,0,2.17.32,2.17,1.45,0,.55-.21.95-.85,1.45-1.29,1.02-4.07,2.8-6.48,4.18v.55h14.16c.27,0,.95-.04.95.72s-.61.72-.95.72h-14.16v7.79c0,2.51-1.35,3.35-3.59,3.35h-4.61c-.27,0-1.05.12-1.05-.72s.78-.72,1.05-.72h2.68c1.42,0,1.76-.43,1.76-1.89v-7.8h-14.03c-.3,0-.92,0-.92-.72.03-.76.64-.72.92-.72h14.03v-.48Zm13.56-12.69c2.54,0,3.32.9,3.32,2.98v2c0,.58,0,2.36-1.8,2.36s-1.8-1.78-1.8-2.36v-2.06c0-1.34-.27-1.71-1.59-1.71h-19.47c-1.29,0-1.59.36-1.59,1.71v2.06c0,.54,0,2.36-1.76,2.36s-1.83-1.75-1.83-2.36v-2c0-2.37,1.12-2.98,3.33-2.98h17.63c-.34-.11-.58-.55-.58-.84,0-.25,1.15-2.25,1.36-2.69.2-.44.92-2.33,1.19-2.8.37-.66,1.05-.84,1.46-.84.95,0,2.14.73,2.14,1.89,0,1.71-4.41,5.03-5.09,5.28h5.09Zm-19.7-.37c-1.02,0-1.19-.4-2-2.22-.51-1.17-1.02-2.07-1.73-3.13-.14-.22-.2-.36-.2-.55,0-.44.37-.84.82-.84.54,0,5.25,3.05,5.25,4.8,0,1.02-.95,1.93-2.13,1.93Zm7.97-.4c-1.12,0-1.36-.73-1.76-1.93-.37-1.09-.82-2.07-1.29-3.05-.17-.36-.54-1.02-.54-1.2,0-.44.41-.84.81-.84.58,0,4.85,3.35,4.85,5.13,0,1.09-1.05,1.89-2.07,1.89Z"/><path class="cls-3" d="m296.71,49.42c0,.58,0,2.29-1.73,2.29s-1.76-1.67-1.76-2.29v-12.99c-1.7,3.75-4.1,7.35-4.92,7.35-.44,0-.78-.36-.78-.8,0-.21.07-.36.37-.83.61-.91,3.87-6.23,5.16-14.56h-5.31c-.31,0-.95-.07-.95-.8,0-.76.64-.6.95-.6h5.48v-5.79c0-.58,0-2.33,1.73-2.33s1.76,1.71,1.76,2.33v5.79h2.54c.34,0,.95-.04.95.72s-.64.68-.95.68h-2.47c.51,3.35,1.73,6.59,3.9,10.23.31.51.34.69.34.8,0,.51-.37.84-.78.84-.75,0-2.71-3.17-3.53-4.58v14.55Zm14.58-14.22c.27-1.27.75-1.82,1.73-1.82.85,0,2.17.65,2.17,1.96,0,.94-1.18,4.55-4.4,8.51,2.34,2.76,4.77,4.33,8.17,5.97.44.22.58.47.58.76,0,.51-.37.84-.75.84-.27,0-5.16-1.43-9.67-5.75-4.2,3.89-9.7,5.86-10.24,5.86-.41,0-.74-.4-.74-.84,0-.33.2-.62.58-.77,3.15-1.35,6.71-3.74,8.71-6.07-3.12-3.75-4.74-7.46-4.74-8.66,0-1.02.92-1.89,1.97-1.89,1.15,0,1.49.69,1.73,1.56.51,1.96.91,3.68,2.68,6.59,1.46-2.44,1.97-4.88,2.24-6.26Zm-11.6-1.34c0-.25.13-.47.44-.8,1.22-1.31,2.1-2.66,3.12-4.66.82-1.64.95-1.96,1.97-1.96.88,0,1.9.65,1.9,1.75,0,1.78-6,6.51-6.65,6.51-.51,0-.78-.44-.78-.84Zm7.66-9.99v-3.58c0-.43,0-2.18,1.83-2.18s1.8,1.78,1.8,2.18v3.58h7.32c.27,0,.95-.04.95.72s-.65.68-.95.68h-17.26c-.27,0-.95.08-.95-.72s.68-.68.95-.68h6.31Zm9.9,10.46c-.71,0-.85-.22-1.97-2-1.46-2.33-2.95-3.86-3.39-4.29-.2-.22-.41-.47-.41-.73,0-.44.34-.84.78-.84s2.58,1.53,3.59,2.29c1.49,1.16,3.16,2.55,3.16,3.6s-.85,1.96-1.76,1.96Z"/><path class="cls-1" d="m51.66,65.14c0,8.73-7.07,15.8-15.79,15.8s-15.8-7.07-15.8-15.8,7.07-15.8,15.8-15.8,15.79,7.08,15.79,15.8Z"/><path class="cls-4" d="m35.93,29.28c.32-1.2.79-2.45,1.42-3.76l.72-1.48c1.28-2.54,2.72-5.42,2.74-8.28,0-1.92-.92-3.43-1.73-4.76-.46-.75-.89-1.46-1.15-2.2,1.96,1.87,5.21,4.29,8.94,4.29,6.02,0,10.91-2.94,10.91-6.54S52.89,0,46.87,0c-4.48,0-8.28,3.5-9.96,5.34-1.68-1.84-5.47-5.34-9.95-5.34-6.02,0-10.92,2.94-10.92,6.55s4.9,6.54,10.92,6.54c3.61,0,6.76-2.26,8.74-4.1.32,1.2.95,2.21,1.53,3.15.75,1.23,1.41,2.29,1.4,3.6-.01,2.33-1.34,4.98-2.51,7.32l-.74,1.51c-.79,1.66-1.36,3.25-1.71,4.78C14.91,30.5,0,46.11,0,65.15s16.09,35.87,35.88,35.87,35.88-16.1,35.88-35.87S55.68,29.3,35.93,29.28Zm-.05,51.64c-8.69,0-15.78-7.07-15.78-15.77s7.08-15.78,15.78-15.78,15.77,7.07,15.77,15.78-7.08,15.77-15.77,15.77Zm16.51,3.68c-2.55,0-4.61-2.06-4.61-4.6s2.06-4.6,4.61-4.6,4.6,2.06,4.6,4.6-2.05,4.6-4.6,4.6Z"/><path class="cls-3" d="m31.55,69.37l.1.04c1.8.74,3.93.91,6,1.07l1.75.15-.06-.22-3.53-12.47-.15.5c-.75,2.39-1.56,4.91-2.69,7.2l-.42.8c-.48.88-.93,1.71-.99,2.82v.11Z"/><path class="cls-3" d="m29.5,74.02c2.13,1.92,7.34,3.79,9.88,2.33.48-.27.78-.68,1.08-1.09.29-.38.56-.75.97-1l.45-.28-12.68-.25.31.28Z"/><path class="cls-3" d="m30.53,60.16l.5-.04.32-.57s-.14.06-.17.08l.96-.84c.1-.08.09-.17.05-.3-.53-1.43-1.61-2.4-2.74-2.49-.7-.05-1.31.28-1.7.88-.52.18-.99.54-1.41,1.09-.04.05-.06.12-.06.19,0,.03,0,.06.01.09.62,1.92,2.38,2.31,3.87,1.85.12.06.37.05.37.05Z"/><path class="cls-3" d="m45.23,59.85v-.04c-.02-.59-.47-1.37-1.68-1.61-1.26-.25-1.85.35-1.97.94-.02.1-.03.18-.03.28,0,.58.43,1.12,1.05,1.49-.03.04-.1.04-.11.1h0c0,.14.09.25.22.26h.06,0,.06c.17,0,.9.04.9.04l.5-.04h.05c.13-.02.22-.12.22-.25h0s-.01-.02-.02-.03c.43-.27.75-.64.75-1.14Z"/><path class="cls-1" d="m56.97,80.03c0,2.55-2.06,4.61-4.6,4.61s-4.6-2.06-4.6-4.61,2.06-4.59,4.6-4.59,4.6,2.06,4.6,4.59Z"/><path class="cls-2" d="m87.49,95.83c.48,0,.96-.07,1.43-.2.47-.13.89-.33,1.26-.59.37-.26.66-.58.89-.96.22-.38.34-.81.34-1.31,0-.6-.15-1.12-.46-1.59-.31-.46-.71-.89-1.21-1.28-.5-.39-1.07-.76-1.71-1.1-.64-.34-1.3-.68-1.96-1.03-.67-.34-1.32-.71-1.96-1.08-.64-.38-1.21-.8-1.71-1.26-.5-.46-.9-.98-1.21-1.55-.31-.57-.46-1.23-.46-1.98s.14-1.44.42-2.07c.28-.64.69-1.19,1.23-1.66.54-.47,1.2-.83,1.99-1.1s1.69-.4,2.72-.4c1.84,0,3.3.39,4.36,1.16,1.07.77,1.84,1.89,2.31,3.35l-1.68.77c-.2-.6-.44-1.14-.75-1.63-.3-.49-.67-.92-1.09-1.27s-.91-.63-1.46-.82c-.55-.19-1.17-.29-1.86-.29-.62,0-1.15.09-1.61.26-.46.17-.84.4-1.15.67s-.53.59-.68.94c-.15.35-.23.71-.23,1.07,0,.51.16.98.47,1.4.32.42.73.83,1.24,1.21.51.38,1.1.75,1.76,1.1.66.35,1.33.7,2.02,1.07.68.36,1.36.74,2.02,1.13.66.39,1.25.82,1.76,1.29.51.47.93.98,1.24,1.53.32.55.47,1.17.47,1.85,0,.77-.15,1.5-.44,2.17-.29.68-.73,1.27-1.32,1.77-.59.51-1.32.91-2.19,1.2-.87.29-1.88.44-3.04.44-.93,0-1.76-.1-2.5-.31-.74-.2-1.39-.5-1.95-.89-.56-.39-1.05-.87-1.45-1.44-.4-.57-.73-1.21-.99-1.93l1.76-.73c.2.63.48,1.2.82,1.7.34.5.75.93,1.21,1.28s.97.61,1.54.8c.56.18,1.16.27,1.8.27Z"/><path class="cls-2" d="m96.73,77.16h1.83l12.75,14.22h.13v-14.22h1.44v19.92h-.75l-13.81-15.82h-.11v15.36h-1.47v-19.46Z"/><path class="cls-2" d="m130.05,77.16v1.26h-10.25v6.96h6.86v1.26h-6.86v8.73h10.25v1.26h-13.52v-19.46h13.52Z"/><path class="cls-2" d="m133.53,86.95c0,1.37.2,2.59.61,3.67.41,1.08.97,2,1.69,2.75.72.75,1.57,1.32,2.55,1.72.98.4,2.05.59,3.19.59.68,0,1.34-.13,1.97-.4s1.22-.61,1.77-1.03c.54-.42,1.03-.9,1.46-1.44.43-.54.78-1.08,1.06-1.63l1.37.88c-.4.65-.87,1.28-1.42,1.88-.54.61-1.18,1.14-1.89,1.6-.72.46-1.53.83-2.43,1.11-.9.28-1.91.42-3.03.42s-2.08-.12-3.03-.37c-.95-.25-1.82-.59-2.62-1.03-.8-.44-1.51-.98-2.14-1.6-.63-.62-1.16-1.31-1.59-2.06-.43-.75-.77-1.55-1-2.41-.23-.86-.35-1.74-.35-2.65s.12-1.8.36-2.66c.24-.86.58-1.67,1.02-2.43.44-.76.99-1.45,1.63-2.09.64-.63,1.37-1.18,2.17-1.63.8-.45,1.69-.8,2.65-1.05.96-.25,1.98-.38,3.07-.38s1.99.14,2.86.42c.87.28,1.67.65,2.39,1.11.72.46,1.36.99,1.92,1.6s1.04,1.23,1.44,1.89l-1.41.95c-.82-1.57-1.73-2.73-2.74-3.46-1.01-.74-2.16-1.1-3.46-1.1-1.13,0-2.18.21-3.16.61-.98.41-1.83,1-2.56,1.76-.73.76-1.3,1.69-1.72,2.78-.42,1.09-.63,2.32-.63,3.69Z"/><path class="cls-2" d="m160.08,85.02c-.32-.43-.98-1.29-2.06-2.18-.77.9-1.76,1.7-3.05,2.27l-.38-.54c2.58-1.16,3.64-2.85,4.24-4.39h-3.76v-.64h4.68c-.39,1.33-.87,2.13-1.34,2.8,1,.79,1.6,1.47,2.21,2.24l-.53.44Z"/><path class="cls-2" d="m166.57,84.94c-.39-.47-1.27-1.52-2.81-3.72-.39-.56-.43-.63-.58-.63-.1,0-.17.05-.32.27-1.17,1.64-1.3,1.82-1.78,2.43l-.53-.48c.66-.78.78-.95,1.91-2.52.2-.28.41-.5.72-.5.35,0,.43.12,1.05.98,1.38,1.92,2.09,2.76,2.79,3.59l-.46.57Zm.61-4.55c0,.57-.47,1.04-1.04,1.04s-1.05-.47-1.05-1.04.48-1.05,1.05-1.05,1.04.46,1.04,1.05Zm-1.63,0c0,.32.26.59.59.59s.59-.27.59-.59-.27-.59-.59-.59-.59.25-.59.59Z"/><path class="cls-2" d="m169.67,82.27c-.65-.31-1.15-.53-2.01-.82l.27-.58c.62.21,1.19.43,2,.8l-.26.6Zm3.96-1.01c-.79,1.17-2.43,3.2-5.25,3.97l-.26-.68c1.13-.23,3.24-1.05,5.1-3.85l.42.56Zm-3.36-.74c-.79-.38-1.31-.59-1.99-.82l.27-.58c.71.25,1.23.46,1.97.79l-.25.6Z"/><path class="cls-2" d="m179.21,81.14l.25.27c-.53,1.12-.85,1.66-1.22,2.21l-.51-.28c.44-.64.69-1.09.91-1.56l-1.84.27.54,3.18-.58.11-.54-3.2-1.71.25-.08-.56,1.7-.25-.21-1.28.58-.08.22,1.27,2.5-.36Z"/><path class="cls-2" d="m181.85,79.29v1.67c0,1.25-.11,2.83-1.56,4.24l-.48-.48c1.1-1.1,1.38-2.2,1.38-3.72v-1.71h.66Zm1.67-.11v4.99c.92-.49,1.54-1.14,2.19-2.07l.47.44c-1.37,1.97-2.83,2.46-3.31,2.6v-5.96h.66Z"/><path class="cls-2" d="m192.39,83.81v.65h-6.1v-.65h6.1Zm-.54-3.97v.65h-4.98v-.65h4.98Z"/><path class="cls-2" d="m198.72,81.84v.62h-6.01v-.62h6.01Z"/><path class="cls-2" d="m203.95,85.02c-.83-1.12-1.64-1.83-2.09-2.2-.37.44-1.29,1.52-3,2.3l-.4-.54c2.16-.97,3.46-2.41,4.21-4.39h-3.73v-.64h3.88l.48.77c-.27.71-.61,1.37-1.05,2,1.06.8,1.87,1.78,2.25,2.25l-.54.46Zm-.48-6.19c.31.43.5.82.74,1.36l-.49.28c-.25-.63-.37-.86-.71-1.38l.46-.26Zm1.04-.35c.28.4.49.77.73,1.36l-.49.28c-.23-.6-.35-.85-.7-1.39l.46-.25Z"/><path class="cls-2" d="m157.92,92.86h2.66v.63h-5.98v-.63h2.66v-3.44h-2.18v-.63h5.02v.63h-2.18v3.44Z"/><path class="cls-2" d="m161.6,93.68c1.84-.65,2.03-1.71,2.09-2.89h-2.87v-.63h6.05v.63h-2.52c-.04,1.1-.17,2.63-2.29,3.41l-.46-.52Zm3.87-5.32v.63h-3.86v-.63h3.86Zm.51-.72c.26.48.36.82.54,1.45l-.53.21c-.13-.58-.25-.94-.5-1.46l.49-.2Zm1.03-.22c.24.45.38.86.53,1.45l-.53.21c-.14-.61-.24-.93-.49-1.47l.49-.19Z"/><path class="cls-2" d="m172.6,93.09v.58h-4.99v-.58h3.01l.4-2.7h-2.81v-.58h3.49l-.48,3.28h1.37Z"/><path class="cls-2" d="m174.5,93.75c1.9-1.04,2.01-2.4,2.04-3.7h-1.87c-.47.83-.9,1.29-1.06,1.47l-.54-.37c1.1-1.22,1.59-2.48,1.84-3.16l.62.2c-.12.33-.25.69-.53,1.24h4.13v.62h-1.93c-.03,1.26-.11,2.98-2.18,4.15l-.53-.45Z"/><path class="cls-2" d="m185.66,90.76v.62h-6.01v-.62h6.01Z"/><path class="cls-2" d="m188.35,91.19c-.65-.31-1.15-.53-2.01-.82l.27-.58c.62.21,1.19.43,2,.8l-.26.6Zm3.96-1.01c-.79,1.17-2.43,3.2-5.25,3.97l-.26-.68c1.13-.23,3.24-1.05,5.1-3.85l.42.56Zm-3.36-.74c-.79-.38-1.31-.58-1.99-.82l.27-.58c.71.25,1.23.45,1.97.79l-.25.6Z"/><path class="cls-2" d="m193.43,93.25h3.59v-1.26h-3.4v-.56h3.4v-1.16h-3.53v-.56h4.11v4.1h-4.17v-.56Z"/><path class="cls-2" d="m201.21,90.06c-.67-.43-1.28-.75-2.12-1.06l.3-.57c.82.29,1.46.59,2.17,1.04l-.35.59Zm3.54.15c-1.46,2.29-3.51,3.43-5.43,3.84l-.23-.68c2.27-.45,4.06-1.75,5.24-3.77l.42.61Z"/><path class="cls-2" d="m207.19,87.98h.65v1.7l3.32-.2.27.37c-.32.55-.78,1.26-1.63,2.19l-.51-.38c.55-.57.77-.87,1.21-1.54l-2.66.17v2.29c0,.67.18.73,1.26.73s1.74-.06,2.11-.1l-.04.69c-.38.02-1,.05-1.94.05-1.14,0-2.04-.01-2.04-1.24v-2.38l-1.7.12-.04-.63,1.75-.1v-1.74Z"/><path class="cls-2" d="m214.44,90.06c-.67-.43-1.28-.75-2.12-1.06l.3-.57c.82.29,1.46.59,2.17,1.04l-.35.59Zm3.54.15c-1.46,2.29-3.51,3.43-5.43,3.84l-.23-.68c2.27-.45,4.06-1.75,5.24-3.77l.42.61Z"/><path class="cls-2" d="m219.41,93.64c1.61-.51,2.35-1.25,2.83-1.8-.43-.32-1.11-.82-2.33-1.45-.25.27-.4.41-.84.78l-.49-.44c.82-.64,1.48-1.41,1.96-2.32h3.76c-.5,4.43-3.72,5.51-4.48,5.77l-.4-.54Zm1.54-4.63c-.17.3-.33.53-.64.92.84.43,1.39.72,2.32,1.39.36-.56.69-1.25.89-2.31h-2.57Z"/><path class="cls-2" d="m230.95,90.76v.62h-6.01v-.62h6.01Z"/></g></svg>